<?xml version="1.0" encoding="UTF-8"?>
<svg width="150px" height="35px" viewBox="0 0 150 35" version="1.1" xmlns="http://www.w3.org/2000/svg" xmlns:xlink="http://www.w3.org/1999/xlink">
    <!-- Generator: Sketch 56.2 (81672) - https://sketch.com -->
    <title>Fill 1</title>
    <desc>Created with Sketch.</desc>
    <g id="Page-1" stroke="none" stroke-width="1" fill="none" fill-rule="evenodd">
        <g id="HOME-1" transform="translate(-1021.000000, -599.000000)" fill="#FF4600">
            <g id="Group-3" transform="translate(1021.000000, 599.000000)">
                <path d="M148.337671,0.074334524 C137.449436,4.00645598 126.521407,7.80946657 115.529985,11.3852241 C104.553656,14.9563438 93.5137949,18.2979663 82.3980527,21.314792 C71.2764102,24.3331137 60.0788862,27.0266386 48.8075389,29.2942323 C45.9873008,29.8615422 43.1541642,30.4477025 40.2846649,30.6095773 C38.9680598,30.683932 37.6200318,30.6754044 36.3139925,30.458923 C35.3825578,30.304379 34.54992,29.9154007 34.4664916,28.7833243 C34.3866308,27.7015159 34.7818182,26.6306288 35.0565283,25.6128522 C35.3599169,24.4885554 35.5544918,23.3202742 35.4278397,22.1449614 C35.3109301,21.0598616 34.8533087,20.0012423 34.0331577,19.3446171 C32.9067365,18.4427859 31.489139,18.5825189 30.1774738,18.7165668 C20.4525715,19.7107055 10.9946952,23.7628118 3.20470161,30.177961 C2.25007715,30.9639963 1.32317069,31.788331 0.420414569,32.6439336 C-0.73070583,33.7348681 0.724352068,35.7831378 1.8810984,34.6866679 C9.19796489,27.7522327 18.2838437,23.1667774 27.8800356,21.6268722 C29.0647744,21.4367217 30.2725657,21.2482169 31.4703402,21.1967521 C32.4131639,21.1559093 32.9639563,21.4747219 33.0767494,22.5215223 C33.1847398,23.5226925 32.8882121,24.4964846 32.6262632,25.4399065 C32.2989987,26.6186603 32.0251119,27.8143196 32.1086776,29.0556091 C32.1938898,30.3187412 32.8028626,31.51081 33.7904193,32.1921204 C34.8575624,32.9283366 36.1364326,33.0899122 37.3711187,33.1717472 C40.204118,33.3598032 43.0371174,33.0095732 45.8284026,32.5039014 C57.0679153,30.4677498 68.2303115,27.7341303 79.2983019,24.8018325 C90.4510929,21.8472434 101.527316,18.5557392 112.539871,15.0329426 C123.50289,11.5260043 134.401416,7.78358456 145.256581,3.89948696 C146.596788,3.41999644 147.936446,2.93826182 149.275555,2.4545823 C150.726084,1.93080811 149.782712,-0.447494782 148.337671,0.074334524" id="Fill-1"></path>
            </g>
        </g>
    </g>
</svg>