<svg xmlns="http://www.w3.org/2000/svg" viewBox="0 0 68.56 68.56"><defs><style>.cls-1{fill:#ff490d;}</style></defs><title>rcobiella</title><g id="Capa_2" data-name="Capa 2"><g id="Capa_1-2" data-name="Capa 1"><path class="cls-1" d="M0,34.28A34.28,34.28,0,1,1,34.28,68.56,34.32,34.32,0,0,1,0,34.28Zm64,0A29.71,29.71,0,1,0,34.28,64.17,29.82,29.82,0,0,0,64,34.28Zm-41.14-17H37.36c6.76,0,10.54,3.86,10.54,9.05,0,4.83-3,7.82-6.68,8.35,4.4.09,6.24,1.76,6.24,7v8.62H42.1V41.66c0-2.81-1.49-4.22-4.74-4.22H28.22V50.37H22.85ZM35.16,33.23c4.48,0,7.38-1.85,7.38-5.63,0-4.57-2.72-5.89-7.38-5.89H28.22V33.23Z"/></g></g></svg>